<svg width="30" height="27" viewBox="0 0 30 27" fill="none" xmlns="http://www.w3.org/2000/svg">
<rect y="22.0031" width="30" height="5" rx="2.5" fill="#6D28D9"/>
<path d="M0 18.1697C0 10.3457 6.34263 4.00308 14.1667 4.00308H15.8333C23.6574 4.00308 30 10.3457 30 18.1697V18.1697C30 19.7346 28.7315 21.0031 27.1667 21.0031H2.83333C1.26853 21.0031 0 19.7346 0 18.1697V18.1697Z" fill="#6D28D9"/>
<path d="M11.826 7.35099C11.5796 7.32123 11.3143 7.3298 11.0597 7.36156C8.70956 7.75499 6.7991 9.40442 5.41042 11.2346C4.0345 13.0932 3.12248 15.4114 3.24354 17.7307C3.25827 17.9848 3.28632 18.2397 3.32893 18.4872C3.32893 18.4872 3.32893 18.4872 3.32893 18.4872C3.38629 18.2427 3.45285 18.0001 3.5265 17.7647C4.20881 15.6446 5.35932 13.8445 6.61483 12.1287C7.90399 10.45 9.24876 8.73586 11.1438 7.63387C11.3566 7.52101 11.5881 7.42107 11.826 7.35099Z" fill="#FCFEFF"/>
<path d="M13.5208 2.71295C13.5196 2.62667 13.5886 2.55578 13.6749 2.5546L16.3649 2.5179C16.4511 2.51673 16.522 2.58571 16.5232 2.67199V2.67199C16.5326 3.36221 15.9807 3.92938 15.2905 3.9388L14.7876 3.94566C14.0974 3.95507 13.5302 3.40317 13.5208 2.71295V2.71295Z" fill="#6D28D9"/>
<path d="M17.0323 2.0505C17.0341 2.16375 16.9438 2.25707 16.8306 2.25894L13.2412 2.31812C13.128 2.31999 13.0347 2.2297 13.0328 2.11646L13.032 2.06567C13.0138 0.961255 13.8943 0.0511832 14.9987 0.032971V0.032971C16.1031 0.0147588 17.0132 0.895304 17.0314 1.99972L17.0323 2.0505Z" fill="#6D28D9"/>
</svg>
